# 3ds Max Wavefront OBJ Exporter v0.97b - (c)2007 guruware
# File Created: 26.05.2017 16:03:23

#
# object description_thumb
#

v  -1.0014 0.5313 0.0000
v  -1.0014 -0.5313 -0.0000
v  0.0005 -0.0000 0.0000
v  -1.0004 -0.5384 -0.0000
v  -0.9973 -0.5436 -0.0000
v  -0.9922 -0.5466 -0.0000
v  -0.9851 -0.5477 -0.0000
v  0.9851 -0.5477 -0.0000
v  0.9922 -0.5466 -0.0000
v  0.9973 -0.5436 -0.0000
v  1.0004 -0.5384 -0.0000
v  1.0014 -0.5313 -0.0000
v  1.0014 0.5313 0.0000
v  1.0004 0.5384 0.0000
v  0.9973 0.5436 0.0000
v  0.9922 0.5466 0.0000
v  0.9851 0.5477 0.0000
v  -0.9851 0.5477 0.0000
v  -0.9922 0.5466 0.0000
v  -0.9973 0.5436 0.0000
v  -1.0004 0.5384 0.0000
# 21 vertices

vn -0.0000 -0.0000 1.0000
vn -0.0000 0.0000 1.0000
vn 0.0000 -0.0000 1.0000
vn 0.0000 0.0000 1.0000
# 4 vertex normals

vt 0.0000 0.9541 0.7500
vt 0.0000 0.0459 1.0000
vt 0.5000 0.5000 0.3750
vt 0.0016 0.0258 1.0000
vt 0.0065 0.0115 1.0000
vt 0.0145 0.0029 1.0000
vt 0.0258 0.0000 1.0000
vt 0.9742 0.0000 0.2500
vt 0.9855 0.0029 0.2500
vt 0.9935 0.0115 0.2500
vt 0.9984 0.0258 0.2500
vt 1.0000 0.0459 0.2500
vt 1.0000 0.9541 0.0000
vt 0.9984 0.9742 0.0000
vt 0.9935 0.9885 0.0000
vt 0.9855 0.9971 0.0000
vt 0.9742 1.0000 0.0000
vt 0.0258 1.0000 0.7500
vt 0.0145 0.9971 0.7500
vt 0.0065 0.9885 0.7500
vt 0.0016 0.9742 0.7500
# 21 texture coords

g description_thumb
usemtl Material__2
s off
f 1/1/1 2/2/1 3/3/1 
f 2/2/1 4/4/1 3/3/1 
f 4/4/2 5/5/2 3/3/2 
f 5/5/1 6/6/1 3/3/1 
f 6/6/1 7/7/1 3/3/1 
f 7/7/3 8/8/3 3/3/3 
f 8/8/3 9/9/3 3/3/3 
f 9/9/3 10/10/3 3/3/3 
f 10/10/4 11/11/4 3/3/4 
f 11/11/3 12/12/3 3/3/3 
f 12/12/3 13/13/3 3/3/3 
f 13/13/1 14/14/1 3/3/1 
f 14/14/2 15/15/2 3/3/2 
f 15/15/1 16/16/1 3/3/1 
f 16/16/1 17/17/1 3/3/1 
f 17/17/3 18/18/3 3/3/3 
f 18/18/3 19/19/3 3/3/3 
f 19/19/3 20/20/3 3/3/3 
f 20/20/4 21/21/4 3/3/4 
f 21/21/3 1/1/3 3/3/3 
# 0 polygons - 20 triangles

