# 3ds Max Wavefront OBJ Exporter v0.97b - (c)2007 guruware
# File Created: 26.05.2017 11:32:27

#
# object user_icon
#

v  0.0850 0.0000 -0.0000
v  0.0821 0.0220 0.0000
v  -0.0000 0.0000 -0.0000
v  0.0736 0.0425 0.0000
v  0.0601 0.0601 0.0000
v  0.0425 0.0736 0.0000
v  0.0220 0.0821 0.0000
v  0.0000 0.0850 0.0000
v  -0.0220 0.0821 0.0000
v  -0.0425 0.0736 0.0000
v  -0.0601 0.0601 0.0000
v  -0.0736 0.0425 0.0000
v  -0.0821 0.0220 0.0000
v  -0.0850 0.0000 0.0000
v  -0.0821 -0.0220 -0.0000
v  -0.0736 -0.0425 -0.0000
v  -0.0601 -0.0601 -0.0000
v  -0.0425 -0.0736 -0.0000
v  -0.0220 -0.0821 -0.0000
v  -0.0000 -0.0850 -0.0000
v  0.0220 -0.0821 -0.0000
v  0.0425 -0.0736 -0.0000
v  0.0601 -0.0601 -0.0000
v  0.0736 -0.0425 -0.0000
v  0.0821 -0.0220 -0.0000
# 25 vertices

vn -0.0000 -0.0000 1.0000
vn 0.0000 -0.0000 1.0000
# 2 vertex normals

vt 1.0000 0.5000 -0.2500
vt 0.9830 0.6294 -0.2500
vt 0.5000 0.5000 -0.2500
vt 0.9330 0.7500 -0.2500
vt 0.8536 0.8536 -0.2500
vt 0.7500 0.9330 -0.2500
vt 0.6294 0.9830 -0.2500
vt 0.5000 1.0000 -0.2500
vt 0.3706 0.9830 -0.2500
vt 0.2500 0.9330 -0.2500
vt 0.1464 0.8536 -0.2500
vt 0.0670 0.7500 -0.2500
vt 0.0170 0.6294 -0.2500
vt 0.0000 0.5000 -0.2500
vt 0.0170 0.3706 -0.2500
vt 0.0670 0.2500 -0.2500
vt 0.1464 0.1464 -0.2500
vt 0.2500 0.0670 -0.2500
vt 0.3706 0.0170 -0.2500
vt 0.5000 -0.0000 -0.2500
vt 0.6294 0.0170 -0.2500
vt 0.7500 0.0670 -0.2500
vt 0.8536 0.1464 -0.2500
vt 0.9330 0.2500 -0.2500
vt 0.9830 0.3706 -0.2500
# 25 texture coords

g user_icon
usemtl Material__2
s off
f 1/1/1 2/2/1 3/3/1 
f 2/2/1 4/4/1 3/3/1 
f 4/4/1 5/5/1 3/3/1 
f 5/5/1 6/6/1 3/3/1 
f 6/6/2 7/7/2 3/3/2 
f 7/7/2 8/8/2 3/3/2 
f 8/8/1 9/9/1 3/3/1 
f 9/9/2 10/10/2 3/3/2 
f 10/10/2 11/11/2 3/3/2 
f 11/11/2 12/12/2 3/3/2 
f 12/12/2 13/13/2 3/3/2 
f 13/13/2 14/14/2 3/3/2 
f 14/14/2 15/15/2 3/3/2 
f 15/15/2 16/16/2 3/3/2 
f 16/16/2 17/17/2 3/3/2 
f 17/17/2 18/18/2 3/3/2 
f 18/18/2 19/19/2 3/3/2 
f 19/19/1 20/20/1 3/3/1 
f 20/20/2 21/21/2 3/3/2 
f 21/21/1 22/22/1 3/3/1 
f 22/22/1 23/23/1 3/3/1 
f 23/23/2 24/24/2 3/3/2 
f 24/24/2 25/25/2 3/3/2 
f 25/25/1 1/1/1 3/3/1 
# 0 polygons - 24 triangles

